<?xml version="1.0" encoding="UTF-8"?>
<svg xmlns="http://www.w3.org/2000/svg" role="img" aria-label="Framework of equal-service fleet sizing" viewBox="0 0 1000 800" width="1000" height="800" font-family="Arial, Helvetica, sans-serif"><defs><marker id="ah" viewBox="0 0 10 10" refX="9" refY="5" markerWidth="6.5" markerHeight="6.5" orient="auto-start-reverse" markerUnits="strokeWidth"><path d="M0 0L10 5L0 10Z" fill="#4D4D4D"/></marker><marker id="ahk" viewBox="0 0 10 10" refX="9" refY="5" markerWidth="5.5" markerHeight="5.5" orient="auto-start-reverse" markerUnits="strokeWidth"><path d="M0 0L10 5L0 10Z" fill="#0072B2"/></marker><pattern id="hatch" width="5" height="5" patternUnits="userSpaceOnUse" patternTransform="rotate(45)"><rect width="5" height="5" fill="rgb(251,238,209)"/><path d="M0 0V5" stroke="#E69F00" stroke-width="1.6"/></pattern></defs><rect width="1000" height="800" fill="#FFFFFF"/><text x="16" y="26" font-size="12.5" fill="#0072B2" font-weight="700" text-anchor="start" letter-spacing="1.4"><tspan>INPUT</tspan></text><path d="M16 35H184" stroke="#CCCCCC" stroke-width="1"/><text x="212" y="26" font-size="12.5" fill="#0072B2" font-weight="700" text-anchor="start" letter-spacing="1.4"><tspan>EQUAL-SERVICE FLEET SIZING</tspan></text><path d="M212 35H780" stroke="#CCCCCC" stroke-width="1"/><text x="808" y="26" font-size="12.5" fill="#0072B2" font-weight="700" text-anchor="start" letter-spacing="1.4"><tspan>OUTPUT</tspan></text><path d="M808 35H984" stroke="#CCCCCC" stroke-width="1"/><rect x="212" y="44" width="568" height="614" rx="10" fill="#F7F7F7"/><g data-box="moves"><rect x="16" y="52" width="168" height="122" rx="7" fill="#FFFFFF" stroke="#CCCCCC" stroke-width="1.2"/><text x="28" y="74" font-size="14.5" fill="#333333" font-weight="700" text-anchor="start"><tspan>Block moves</tspan></text><g data-box="icon"><path d="M28 110H172" stroke="#CCCCCC" stroke-width="1"/><path d="M30 94H60" stroke="#0072B2" stroke-width="3.2" stroke-linecap="round"/><circle cx="30" cy="94" r="2.4" fill="#0072B2"/><path d="M42 86H76" stroke="#0072B2" stroke-width="3.2" stroke-linecap="round"/><circle cx="42" cy="86" r="2.4" fill="#0072B2"/><path d="M68 102H102" stroke="#0072B2" stroke-width="3.2" stroke-linecap="round"/><circle cx="68" cy="102" r="2.4" fill="#0072B2"/><path d="M82 80H120" stroke="#0072B2" stroke-width="3.2" stroke-linecap="round"/><circle cx="82" cy="80" r="2.4" fill="#0072B2"/><path d="M110 96H144" stroke="#0072B2" stroke-width="3.2" stroke-linecap="round"/><circle cx="110" cy="96" r="2.4" fill="#0072B2"/><path d="M128 88H166" stroke="#0072B2" stroke-width="3.2" stroke-linecap="round"/><circle cx="128" cy="88" r="2.4" fill="#0072B2"/></g><text x="28" y="138" font-size="12.5" fill="#333333" font-weight="400" text-anchor="start"><tspan>mass </tspan><tspan font-style="italic">m</tspan><tspan dy="3.75" font-size="9.0" font-style="italic">i</tspan><tspan dy="-3.75"> </tspan></text><text x="28" y="158" font-size="12.5" fill="#333333" font-weight="400" text-anchor="start"><tspan>release </tspan><tspan font-style="italic">r</tspan><tspan dy="3.75" font-size="9.0" font-style="italic">i</tspan><tspan dy="-3.75">, due </tspan><tspan font-style="italic">d</tspan><tspan dy="3.75" font-size="9.0" font-style="italic">i</tspan><tspan dy="-3.75"> </tspan></text></g><g data-box="conditions"><rect x="16" y="186" width="168" height="146" rx="7" fill="#FFFFFF" stroke="#CCCCCC" stroke-width="1.2"/><text x="28" y="208" font-size="14.5" fill="#333333" font-weight="700" text-anchor="start"><tspan>Test conditions</tspan></text><g data-box="icon"><rect x="28" y="218" width="9" height="9" rx="1" fill="rgb(214,232,243)"/><rect x="38.5" y="218" width="9" height="9" rx="1" fill="rgb(184,216,233)"/><rect x="49" y="218" width="9" height="9" rx="1" fill="rgb(153,199,224)"/><rect x="59.5" y="218" width="9" height="9" rx="1" fill="rgb(122,182,215)"/><rect x="70" y="218" width="9" height="9" rx="1" fill="rgb(92,165,206)"/><rect x="80.5" y="218" width="9" height="9" rx="1" fill="rgb(61,148,196)"/><rect x="28" y="228.5" width="9" height="9" rx="1" fill="rgb(214,232,243)"/><rect x="38.5" y="228.5" width="9" height="9" rx="1" fill="rgb(184,216,233)"/><rect x="49" y="228.5" width="9" height="9" rx="1" fill="rgb(153,199,224)"/><rect x="59.5" y="228.5" width="9" height="9" rx="1" fill="rgb(122,182,215)"/><rect x="70" y="228.5" width="9" height="9" rx="1" fill="rgb(92,165,206)"/><rect x="80.5" y="228.5" width="9" height="9" rx="1" fill="rgb(61,148,196)"/><rect x="28" y="239" width="9" height="9" rx="1" fill="rgb(214,232,243)"/><rect x="38.5" y="239" width="9" height="9" rx="1" fill="rgb(184,216,233)"/><rect x="49" y="239" width="9" height="9" rx="1" fill="rgb(153,199,224)"/><rect x="59.5" y="239" width="9" height="9" rx="1" fill="rgb(122,182,215)"/><rect x="70" y="239" width="9" height="9" rx="1" fill="rgb(92,165,206)"/><rect x="80.5" y="239" width="9" height="9" rx="1" fill="rgb(61,148,196)"/><rect x="28" y="249.5" width="9" height="9" rx="1" fill="rgb(214,232,243)"/><rect x="38.5" y="249.5" width="9" height="9" rx="1" fill="rgb(184,216,233)"/><rect x="49" y="249.5" width="9" height="9" rx="1" fill="rgb(153,199,224)"/><rect x="59.5" y="249.5" width="9" height="9" rx="1" fill="rgb(122,182,215)"/><rect x="70" y="249.5" width="9" height="9" rx="1" fill="rgb(92,165,206)"/><rect x="80.5" y="249.5" width="9" height="9" rx="1" fill="rgb(61,148,196)"/><rect x="28" y="260" width="9" height="9" rx="1" fill="rgb(214,232,243)"/><rect x="38.5" y="260" width="9" height="9" rx="1" fill="rgb(184,216,233)"/><rect x="49" y="260" width="9" height="9" rx="1" fill="rgb(153,199,224)"/><rect x="59.5" y="260" width="9" height="9" rx="1" fill="rgb(122,182,215)"/><rect x="70" y="260" width="9" height="9" rx="1" fill="rgb(92,165,206)"/><rect x="80.5" y="260" width="9" height="9" rx="1" fill="rgb(61,148,196)"/><rect x="28" y="270.5" width="9" height="9" rx="1" fill="rgb(214,232,243)"/><rect x="38.5" y="270.5" width="9" height="9" rx="1" fill="rgb(184,216,233)"/><rect x="49" y="270.5" width="9" height="9" rx="1" fill="rgb(153,199,224)"/><rect x="59.5" y="270.5" width="9" height="9" rx="1" fill="rgb(122,182,215)"/><rect x="70" y="270.5" width="9" height="9" rx="1" fill="rgb(92,165,206)"/><rect x="80.5" y="270.5" width="9" height="9" rx="1" fill="rgb(61,148,196)"/></g><text x="100" y="232" font-size="12.5" fill="#333333" font-weight="400" text-anchor="start"><tspan>mass</tspan></text><text x="100" y="250" font-size="12.5" fill="#333333" font-weight="400" text-anchor="start"><tspan>handling</tspan></text><text x="100" y="268" font-size="12.5" fill="#333333" font-weight="400" text-anchor="start"><tspan>due dates</tspan></text><text x="28" y="304" font-size="13" fill="#333333" font-weight="700" text-anchor="start"><tspan>daily instances</tspan></text><text x="28" y="322" font-size="12.5" fill="#666666" font-weight="400" text-anchor="start"><tspan>per condition</tspan></text></g><g data-box="network"><rect x="16" y="344" width="168" height="90" rx="7" fill="#FFFFFF" stroke="#CCCCCC" stroke-width="1.2"/><text x="28" y="366" font-size="14.5" fill="#333333" font-weight="700" text-anchor="start"><tspan>Yard network</tspan></text><g data-box="icon"><path d="M139 374L150 356L168 361L164 378Z M150 356L164 378" fill="none" stroke="#0072B2" stroke-width="1.3"/><circle cx="139" cy="374" r="3" fill="#FFFFFF" stroke="#0072B2" stroke-width="1.3"/><circle cx="150" cy="356" r="3" fill="#FFFFFF" stroke="#0072B2" stroke-width="1.3"/><circle cx="168" cy="361" r="3" fill="#FFFFFF" stroke="#0072B2" stroke-width="1.3"/><circle cx="164" cy="378" r="3" fill="#FFFFFF" stroke="#0072B2" stroke-width="1.3"/></g><text x="28" y="396" font-size="12.5" fill="#333333" font-weight="400" text-anchor="start"><tspan>digitised layout</tspan></text><text x="28" y="416" font-size="12.5" fill="#333333" font-weight="400" text-anchor="start"><tspan>shortest-path times</tspan></text></g><g data-box="fleets"><rect x="16" y="446" width="168" height="106" rx="7" fill="#FFFFFF" stroke="#CCCCCC" stroke-width="1.2"/><text x="28" y="468" font-size="14.5" fill="#333333" font-weight="700" text-anchor="start"><tspan>Fleets </tspan><tspan font-style="italic">X</tspan></text><g data-box="icon"><rect x="102" y="456" width="70" height="6" rx="1.5" fill="rgb(166,206,228)" stroke="#0072B2" stroke-width="1.1"/><circle cx="107" cy="465.5" r="2.4" fill="#333333"/><circle cx="116" cy="465.5" r="2.4" fill="#333333"/><circle cx="125" cy="465.5" r="2.4" fill="#333333"/><circle cx="134" cy="465.5" r="2.4" fill="#333333"/><circle cx="143" cy="465.5" r="2.4" fill="#333333"/><circle cx="152" cy="465.5" r="2.4" fill="#333333"/><circle cx="161" cy="465.5" r="2.4" fill="#333333"/><rect x="102" y="474" width="32" height="6" rx="1.5" fill="rgb(246,221,166)" stroke="#E69F00" stroke-width="1.1"/><circle cx="107" cy="483.5" r="2.4" fill="#333333"/><circle cx="116" cy="483.5" r="2.4" fill="#333333"/><circle cx="125" cy="483.5" r="2.4" fill="#333333"/><path d="M134 477H140" stroke="#333333" stroke-width="2.2"/><rect x="140" y="474" width="32" height="6" rx="1.5" fill="rgb(246,221,166)" stroke="#E69F00" stroke-width="1.1"/><circle cx="145" cy="483.5" r="2.4" fill="#333333"/><circle cx="154" cy="483.5" r="2.4" fill="#333333"/><circle cx="163" cy="483.5" r="2.4" fill="#333333"/></g><text x="28" y="512" font-size="12.5" fill="#333333" font-weight="400" text-anchor="start"><tspan>homogeneous tiers</tspan></text><text x="28" y="532" font-size="12.5" fill="#333333" font-weight="400" text-anchor="start"><tspan>light–heavy mixes</tspan></text></g><g data-box="prices"><rect x="16" y="564" width="168" height="86" rx="7" fill="#FFFFFF" stroke="#CCCCCC" stroke-width="1.2"/><text x="28" y="586" font-size="14.5" fill="#333333" font-weight="700" text-anchor="start"><tspan>Prices</tspan></text><g data-box="icon"><path d="M102 572V600H170" fill="none" stroke="#CCCCCC" stroke-width="1"/><path d="M106 597L168 578" stroke="#E69F00" stroke-width="1.8"/><circle cx="110" cy="596" r="2.3" fill="#0072B2"/><circle cx="120" cy="593" r="2.3" fill="#0072B2"/><circle cx="128" cy="591" r="2.3" fill="#0072B2"/><circle cx="138" cy="588" r="2.3" fill="#0072B2"/><circle cx="148" cy="585" r="2.3" fill="#0072B2"/><circle cx="158" cy="582" r="2.3" fill="#0072B2"/><circle cx="165" cy="580" r="2.3" fill="#0072B2"/></g><text x="28" y="616" font-size="12.5" fill="#333333" font-weight="400" text-anchor="start"><tspan>price curve </tspan><tspan font-style="italic">p</tspan><tspan>(</tspan><tspan font-style="italic">Q</tspan><tspan>)</tspan></text><text x="28" y="636" font-size="12.5" fill="#333333" font-weight="400" text-anchor="start"><tspan>price ratio </tspan><tspan font-style="italic">r</tspan></text></g><g data-box="spec"><rect x="222" y="52" width="548" height="60" rx="7" fill="#FFFFFF" stroke="#0072B2" stroke-width="1.6"/><circle cx="242" cy="82" r="10" fill="#0072B2"/><text x="242" y="86.5" text-anchor="middle" font-size="12.5" font-weight="700" fill="#FFFFFF">1</text><text x="260" y="87" font-size="15" fill="#333333" font-weight="700" text-anchor="start"><tspan>Service specification</tspan></text><g data-box="icon"><rect x="424" y="74" width="56" height="16" fill="rgb(199,224,238)"/><rect x="480" y="74" width="38" height="16" fill="url(#hatch)"/><path d="M424 98H546" stroke="#333333" stroke-width="1.1"/><path d="M480 68V102" stroke="#333333" stroke-width="1.3"/><path d="M518 68V102" stroke="#333333" stroke-width="1.3" stroke-dasharray="3 2"/><path d="M527 76l10 10m0 -10l-10 10" stroke="#333333" stroke-width="1.6"/></g><text x="562" y="77" font-size="15" fill="#0072B2" font-weight="700" text-anchor="start"><tspan font-style="italic">S</tspan><tspan> = (</tspan><tspan font-style="italic">θ</tspan><tspan>, </tspan><tspan font-style="italic">T</tspan><tspan dy="4.50" font-size="10.8">max</tspan><tspan dy="-4.50">)</tspan></text><text x="562" y="99" font-size="12.5" fill="#333333" font-weight="400" text-anchor="start"><tspan>on-time share </tspan><tspan font-style="italic">θ</tspan><tspan> · delay cap </tspan><tspan font-style="italic">T</tspan><tspan dy="3.75" font-size="9.0">max</tspan><tspan dy="-3.75"> </tspan></text></g><g data-box="schedule"><rect x="222" y="136" width="286" height="338" rx="7" fill="#FFFFFF" stroke="#0072B2" stroke-width="2"/><circle cx="242" cy="160" r="10" fill="#0072B2"/><text x="242" y="164.5" text-anchor="middle" font-size="12.5" font-weight="700" fill="#FFFFFF">2</text><text x="260" y="165" font-size="15" fill="#333333" font-weight="700" text-anchor="start"><tspan>Schedule each fleet</tspan></text><g data-box="construction"><rect x="236" y="178" width="125" height="88" rx="7" fill="#FFFFFF" stroke="#0072B2" stroke-width="1.3"/><text x="298.5" y="197" font-size="13" fill="#333333" font-weight="700" text-anchor="middle"><tspan>Construction</tspan></text><text x="298.5" y="217" font-size="12.5" fill="#666666" font-weight="400" text-anchor="middle"><tspan>greedy</tspan></text><text x="298.5" y="235" font-size="12.5" fill="#666666" font-weight="400" text-anchor="middle"><tspan>regret-2</tspan></text><text x="298.5" y="253" font-size="12.5" fill="#666666" font-weight="400" text-anchor="middle"><tspan>randomised</tspan></text></g><g data-box="teams"><rect x="369" y="178" width="125" height="88" rx="7" fill="#FFFFFF" stroke="#E69F00" stroke-width="1.6"/><text x="431.5" y="197" font-size="13" fill="#333333" font-weight="700" text-anchor="middle"><tspan>Minimal teams</tspan></text><g data-box="icon"><rect x="391.5" y="205" width="80" height="15" rx="2" fill="#0072B2"/><rect x="390.5" y="223" width="36" height="6" rx="1.5" fill="rgb(246,221,166)" stroke="#E69F00" stroke-width="1.1"/><circle cx="395.5" cy="232.5" r="2.4" fill="#333333"/><circle cx="404.5" cy="232.5" r="2.4" fill="#333333"/><circle cx="413.5" cy="232.5" r="2.4" fill="#333333"/><circle cx="422.5" cy="232.5" r="2.4" fill="#333333"/><path d="M426.5 226H436.5" stroke="#333333" stroke-width="2.2"/><rect x="436.5" y="223" width="36" height="6" rx="1.5" fill="rgb(246,221,166)" stroke="#E69F00" stroke-width="1.1"/><circle cx="441.5" cy="232.5" r="2.4" fill="#333333"/><circle cx="450.5" cy="232.5" r="2.4" fill="#333333"/><circle cx="459.5" cy="232.5" r="2.4" fill="#333333"/><circle cx="468.5" cy="232.5" r="2.4" fill="#333333"/></g><text x="431.5" y="254" font-size="12.5" fill="#333333" font-weight="400" text-anchor="middle"><tspan>Σ</tspan><tspan font-style="italic">Q</tspan><tspan dy="3.75" font-size="9.0" font-style="italic">k</tspan><tspan dy="-3.75"> ≥ </tspan><tspan font-style="italic">m</tspan><tspan dy="3.75" font-size="9.0" font-style="italic">i</tspan><tspan dy="-3.75"> </tspan></text></g><g data-box="loop"><rect x="236" y="276" width="258" height="82" rx="7" fill="#FFFFFF" stroke="#0072B2" stroke-width="1.4"/><g data-box="node"><rect x="248.5" y="284" width="100" height="36" rx="5" fill="#FFFFFF" stroke="#0072B2" stroke-width="1.3"/><text x="298.5" y="299" font-size="13" fill="#333333" font-weight="700" text-anchor="middle"><tspan>Destroy</tspan></text><text x="298.5" y="314" font-size="12" fill="#666666" font-weight="400" text-anchor="middle"><tspan>remove tasks</tspan></text></g><g data-box="node"><rect x="381.5" y="284" width="100" height="36" rx="5" fill="#FFFFFF" stroke="#0072B2" stroke-width="1.3"/><text x="431.5" y="299" font-size="13" fill="#333333" font-weight="700" text-anchor="middle"><tspan>Repair</tspan></text><text x="431.5" y="314" font-size="12" fill="#666666" font-weight="400" text-anchor="middle"><tspan>reinsert tasks</tspan></text></g><path d="M348.5 302L381.5 302" fill="none" stroke="#0072B2" stroke-width="1.5" stroke-linejoin="round" marker-end="url(#ahk)"/><path d="M431.5 320L431.5 332L298.5 332L298.5 321" fill="none" stroke="#0072B2" stroke-width="1.5" stroke-linejoin="round" marker-end="url(#ahk)"/><text x="365" y="350" font-size="12" fill="#666666" font-weight="400" text-anchor="middle"><tspan>accept (SA) · adapt weights</tspan></text></g><path d="M298.5 266L298.5 284" fill="none" stroke="#4D4D4D" stroke-width="1.5" stroke-linejoin="round" marker-end="url(#ah)"/><path d="M431.5 266L431.5 284" fill="none" stroke="#4D4D4D" stroke-width="1.5" stroke-linejoin="round" marker-end="url(#ah)"/><g data-box="forward"><rect x="236" y="366" width="258" height="66" rx="7" fill="#FFFFFF" stroke="#CCCCCC" stroke-width="1.2"/><text x="246" y="386" font-size="13" fill="#333333" font-weight="700" text-anchor="start"><tspan>Synchronised</tspan></text><text x="246" y="403" font-size="13" fill="#333333" font-weight="700" text-anchor="start"><tspan>forward pass</tspan></text><text x="246" y="422" font-size="12" fill="#666666" font-weight="400" text-anchor="start"><tspan>joint start</tspan></text><g data-box="icon"><rect x="352" y="374" width="18" height="11" rx="1.5" fill="rgb(218,218,218)"/><rect x="370" y="374" width="22" height="11" rx="1.5" fill="url(#hatch)"/><rect x="392" y="374" width="50" height="11" rx="1.5" fill="rgb(236,183,64)" stroke="#E69F00" stroke-width="1"/><rect x="448" y="374" width="34" height="11" rx="1.5" fill="rgb(77,156,201)"/><rect x="352" y="390" width="40" height="11" rx="1.5" fill="rgb(218,218,218)"/><rect x="392" y="390" width="50" height="11" rx="1.5" fill="rgb(236,183,64)" stroke="#E69F00" stroke-width="1"/><rect x="452" y="390" width="30" height="11" rx="1.5" fill="rgb(77,156,201)"/><rect x="356" y="406" width="30" height="11" rx="1.5" fill="rgb(77,156,201)"/><rect x="392" y="406" width="8" height="11" rx="1.5" fill="rgb(218,218,218)"/><rect x="404" y="406" width="36" height="11" rx="1.5" fill="rgb(77,156,201)"/><rect x="448" y="406" width="30" height="11" rx="1.5" fill="rgb(77,156,201)"/><path d="M392 370V421" stroke="#333333" stroke-width="1.1" stroke-dasharray="3 2"/><path d="M417 385V390" stroke="#333333" stroke-width="2.4"/></g></g><g data-box="rank"><rect x="236" y="440" width="258" height="26" rx="5" fill="#FFFFFF" stroke="#CCCCCC" stroke-width="1.2"/><text x="246" y="457" font-size="12.5" fill="#0072B2" font-weight="700" text-anchor="start"><tspan>Rank</tspan></text><text x="284.549165725708" y="457" font-size="12.5" fill="#333333" font-weight="400" text-anchor="start"><tspan>over-cap ≻ late ≻ Σ</tspan><tspan font-style="italic">T</tspan><tspan dy="3.75" font-size="9.0" font-style="italic">i</tspan><tspan dy="-3.75"> ≻ crew</tspan></text></g></g><g data-box="scan"><rect x="568" y="136" width="202" height="338" rx="7" fill="#FFFFFF" stroke="#0072B2" stroke-width="2"/><circle cx="588" cy="160" r="10" fill="#0072B2"/><text x="588" y="164.5" text-anchor="middle" font-size="12.5" font-weight="700" fill="#FFFFFF">3</text><text x="606" y="165" font-size="15" fill="#333333" font-weight="700" text-anchor="start"><tspan>Count scan</tspan></text><g data-box="rung"><rect x="580" y="178" width="54" height="32" rx="5" fill="#FFFFFF" stroke="#666666" stroke-width="1.2" stroke-dasharray="4 3"/><text x="607" y="199" font-size="12.5" fill="#333333" font-weight="400" text-anchor="middle"><tspan font-style="italic">K</tspan><tspan dy="-5.25" font-size="9.0">*</tspan><tspan dy="5.25">−1</tspan></text></g><g data-box="rung"><rect x="642" y="178" width="54" height="32" rx="5" fill="rgb(214,239,233)" stroke="#009E73" stroke-width="2.6"/><text x="669" y="199" font-size="12.5" fill="#333333" font-weight="700" text-anchor="middle"><tspan font-style="italic">K</tspan><tspan dy="-5.25" font-size="9.0">*</tspan><tspan dy="5.25"> </tspan></text></g><g data-box="rung"><rect x="704" y="178" width="54" height="32" rx="5" fill="rgb(214,239,233)" stroke="#009E73" stroke-width="1.2"/><text x="731" y="199" font-size="12.5" fill="#333333" font-weight="400" text-anchor="middle"><tspan font-style="italic">K</tspan><tspan dy="-5.25" font-size="9.0">*</tspan><tspan dy="5.25">+1</tspan></text></g><g data-box="icon"><path d="M598 226V306H752" fill="none" stroke="#CCCCCC" stroke-width="1.2"/><path d="M598 246H752" stroke="#666666" stroke-width="1.1" stroke-dasharray="4 3"/><text x="593" y="250" font-size="12" fill="#666666" font-weight="400" text-anchor="end"><tspan font-style="italic">θ</tspan></text><path d="M608.8 298L635.0 280L661.1 257L687.3 240L713.5 233L739.7 229" fill="none" stroke="#0072B2" stroke-width="1.8"/><circle cx="608.78" cy="298" r="2.8" fill="#FFFFFF" stroke="#0072B2" stroke-width="1.3"/><circle cx="634.96" cy="280" r="2.8" fill="#FFFFFF" stroke="#0072B2" stroke-width="1.3"/><circle cx="661.14" cy="257" r="2.8" fill="#FFFFFF" stroke="#0072B2" stroke-width="1.3"/><circle cx="687.3199999999999" cy="240" r="4.5" fill="#009E73" stroke="#009E73" stroke-width="1.3"/><circle cx="713.5" cy="233" r="2.8" fill="#0072B2" stroke="#0072B2" stroke-width="1.3"/><circle cx="739.6800000000001" cy="229" r="2.8" fill="#0072B2" stroke="#0072B2" stroke-width="1.3"/><path d="M687.3199999999999 245V306" stroke="#009E73" stroke-width="1" stroke-dasharray="2 2"/><text x="687.3199999999999" y="321" font-size="12" fill="#333333" font-weight="400" text-anchor="middle"><tspan font-style="italic">K</tspan><tspan dy="-5.04" font-size="8.6">*</tspan><tspan dy="5.04"> </tspan></text><text x="752" y="321" font-size="12" fill="#666666" font-weight="400" text-anchor="end"><tspan font-style="italic">K</tspan></text><path d="M669 328L727 350L669 372L611 350Z" fill="#FFFFFF" stroke="#0072B2" stroke-width="1.5"/><text x="669" y="355" font-size="13" fill="#333333" font-weight="700" text-anchor="middle"><tspan>Meets </tspan><tspan font-style="italic">S</tspan><tspan>?</tspan></text></g><text x="669" y="396" font-size="13" fill="#333333" font-weight="400" text-anchor="middle"><tspan>smallest </tspan><tspan font-style="italic">K</tspan><tspan> meeting </tspan><tspan font-style="italic">S</tspan></text><text x="669" y="420" font-size="12.5" fill="#666666" font-weight="400" text-anchor="middle"><tspan>boundary re-checked</tspan></text><text x="669" y="440" font-size="12.5" fill="#666666" font-weight="400" text-anchor="middle"><tspan>per fleet family</tspan></text></g><path d="M568 190L508 190" fill="none" stroke="#4D4D4D" stroke-width="1.5" stroke-linejoin="round" marker-end="url(#ah)" stroke-dasharray="5 3"/><text x="538" y="182" font-size="12.5" fill="#666666" font-weight="400" text-anchor="middle"><tspan font-style="italic">X</tspan><tspan>, </tspan><tspan font-style="italic">K</tspan></text><path d="M508 420L568 420" fill="none" stroke="#4D4D4D" stroke-width="1.5" stroke-linejoin="round" marker-end="url(#ah)"/><text x="538" y="412" font-size="12" fill="#666666" font-weight="400" text-anchor="middle"><tspan>schedules</tspan></text><path d="M365 112L365 136" fill="none" stroke="#4D4D4D" stroke-width="1.5" stroke-linejoin="round" marker-end="url(#ah)"/><path d="M669 112L669 136" fill="none" stroke="#4D4D4D" stroke-width="1.5" stroke-linejoin="round" marker-end="url(#ah)"/><g data-box="price"><rect x="222" y="498" width="548" height="152" rx="7" fill="#FFFFFF" stroke="#0072B2" stroke-width="1.6"/><circle cx="242" cy="522" r="10" fill="#0072B2"/><text x="242" y="526.5" text-anchor="middle" font-size="12.5" font-weight="700" fill="#FFFFFF">4</text><text x="260" y="527" font-size="15" fill="#333333" font-weight="700" text-anchor="start"><tspan>Price each fleet at </tspan><tspan font-style="italic">K</tspan><tspan dy="-6.30" font-size="10.8">*</tspan><tspan dy="6.30"> </tspan></text><text x="754" y="528" font-size="16.5" fill="#0072B2" font-weight="700" text-anchor="end"><tspan font-style="italic">C</tspan><tspan dy="4.95" font-size="11.9" font-style="italic">X</tspan><tspan dy="-4.95">(</tspan><tspan font-style="italic">r</tspan><tspan>) = </tspan><tspan font-style="italic">r</tspan><tspan> · </tspan><tspan font-style="italic">P</tspan><tspan dy="4.95" font-size="11.9" font-style="italic">X</tspan><tspan dy="-4.95"> + </tspan><tspan font-style="italic">L</tspan><tspan dy="4.95" font-size="11.9" font-style="italic">X</tspan><tspan dy="-4.95"> </tspan></text><g data-box="pricing-part"><rect x="236" y="540" width="165.33333333333334" height="98" rx="7" fill="#FFFFFF" stroke="#CCCCCC" stroke-width="1.2"/><text x="248" y="560" font-size="13" fill="#333333" font-weight="700" text-anchor="start"><tspan>Capital </tspan><tspan font-style="italic">P</tspan><tspan dy="3.90" font-size="9.4" font-style="italic">X</tspan><tspan dy="-3.90"> </tspan></text><g data-box="icon"><path d="M248 570V608H389.33333333333337" fill="none" stroke="#CCCCCC" stroke-width="1.1"/><path d="M254 604L383.33333333333337 576" stroke="#E69F00" stroke-width="1.8"/><circle cx="259.3066666666667" cy="603" r="2.6" fill="#0072B2"/><circle cx="276.26666666666665" cy="601" r="2.6" fill="#0072B2"/><circle cx="293.2266666666667" cy="596" r="2.6" fill="#0072B2"/><circle cx="311.6" cy="593" r="2.6" fill="#0072B2"/><circle cx="329.97333333333336" cy="589" r="2.6" fill="#0072B2"/><circle cx="346.93333333333334" cy="587" r="2.6" fill="#0072B2"/><circle cx="363.8933333333333" cy="582" r="2.6" fill="#0072B2"/><circle cx="379.44000000000005" cy="579" r="2.6" fill="#0072B2"/></g><text x="248" y="626" font-size="12.5" fill="#666666" font-weight="400" text-anchor="start"><tspan>price curve </tspan><tspan font-style="italic">p</tspan><tspan>(</tspan><tspan font-style="italic">Q</tspan><tspan>)</tspan></text></g><g data-box="pricing-part"><rect x="413.33333333333337" y="540" width="165.33333333333334" height="98" rx="7" fill="#FFFFFF" stroke="#CCCCCC" stroke-width="1.2"/><text x="425.33333333333337" y="560" font-size="13" fill="#333333" font-weight="700" text-anchor="start"><tspan>Labour </tspan><tspan font-style="italic">L</tspan><tspan dy="3.90" font-size="9.4" font-style="italic">X</tspan><tspan dy="-3.90"> </tspan></text><g data-box="icon"><rect x="427.33333333333337" y="594" width="48" height="6" rx="1.5" fill="rgb(166,206,228)" stroke="#0072B2" stroke-width="1.1"/><circle cx="432.33333333333337" cy="603.5" r="2.4" fill="#333333"/><circle cx="441.33333333333337" cy="603.5" r="2.4" fill="#333333"/><circle cx="450.33333333333337" cy="603.5" r="2.4" fill="#333333"/><circle cx="459.33333333333337" cy="603.5" r="2.4" fill="#333333"/><circle cx="468.33333333333337" cy="603.5" r="2.4" fill="#333333"/><circle cx="491.33333333333337" cy="580" r="4.2" fill="#333333"/><path d="M485.33333333333337 600V592a6 6 0 0 1 12 0V600Z" fill="#333333"/><circle cx="509.33333333333337" cy="580" r="4.2" fill="#333333"/><path d="M503.33333333333337 600V592a6 6 0 0 1 12 0V600Z" fill="#333333"/><circle cx="527.3333333333334" cy="580" r="4.2" fill="#333333"/><path d="M521.3333333333334 600V592a6 6 0 0 1 12 0V600Z" fill="#333333"/><circle cx="545.3333333333334" cy="580" r="4.2" fill="#333333"/><path d="M539.3333333333334 600V592a6 6 0 0 1 12 0V600Z" fill="#333333"/><path d="M425.33333333333337 608H566.6666666666667" stroke="#CCCCCC" stroke-width="1.1"/></g><text x="425.33333333333337" y="626" font-size="12.5" fill="#666666" font-weight="400" text-anchor="start"><tspan>shift or operating crew</tspan></text></g><g data-box="pricing-part"><rect x="590.6666666666667" y="540" width="165.33333333333334" height="98" rx="7" fill="#FFFFFF" stroke="#CCCCCC" stroke-width="1.2"/><text x="602.6666666666667" y="560" font-size="13" fill="#333333" font-weight="700" text-anchor="start"><tspan>Price ratio </tspan><tspan font-style="italic">r</tspan></text><g data-box="icon"><path d="M602.6666666666667 570V608H744.0000000000001" fill="none" stroke="#CCCCCC" stroke-width="1.1"/><path d="M606.6666666666667 590L740.0000000000001 578" stroke="#E69F00" stroke-width="2.2"/><path d="M606.6666666666667 604L740.0000000000001 572" stroke="#0072B2" stroke-width="2.2"/><path d="M700.0000000000001 580V608" stroke="#666666" stroke-width="1" stroke-dasharray="3 2"/><circle cx="700.0000000000001" cy="580.4" r="3" fill="#009E73"/></g><text x="602.6666666666667" y="626" font-size="12.5" fill="#666666" font-weight="400" text-anchor="start"><tspan>crossing point </tspan><tspan font-style="italic">r</tspan><tspan dy="-5.25" font-size="9.0">*</tspan><tspan dy="5.25"> </tspan></text></g></g><path d="M669 474L669 498" fill="none" stroke="#4D4D4D" stroke-width="1.5" stroke-linejoin="round" marker-end="url(#ah)"/><text x="677" y="491" font-size="12.5" fill="#666666" font-weight="400" text-anchor="start"><tspan font-style="italic">K</tspan><tspan dy="-5.25" font-size="9.0">*</tspan><tspan dy="5.25"> </tspan></text><path d="M184 113H203" stroke="#4D4D4D" stroke-width="1.5"/><path d="M184 259H203" stroke="#4D4D4D" stroke-width="1.5"/><path d="M184 389H203" stroke="#4D4D4D" stroke-width="1.5"/><path d="M184 499H203" stroke="#4D4D4D" stroke-width="1.5"/><path d="M203 113V499" stroke="#4D4D4D" stroke-width="1.5"/><path d="M203 305L222 305" fill="none" stroke="#4D4D4D" stroke-width="1.5" stroke-linejoin="round" marker-end="url(#ah)"/><path d="M184 607L222 607" fill="none" stroke="#4D4D4D" stroke-width="1.5" stroke-linejoin="round" marker-end="url(#ah)"/><g data-box="output"><rect x="808" y="52" width="176" height="598" rx="7" fill="#FFFFFF" stroke="#009E73" stroke-width="2"/><text x="822" y="76" font-size="15" fill="#333333" font-weight="700" text-anchor="start"><tspan>Cheapest fleet</tspan></text><text x="822" y="98" font-size="13" fill="#333333" font-weight="400" text-anchor="start"><tspan font-style="italic">X</tspan><tspan dy="-5.46" font-size="9.4">*</tspan><tspan dy="5.46"> = arg min </tspan><tspan font-style="italic">C</tspan><tspan dy="3.90" font-size="9.4" font-style="italic">X</tspan><tspan dy="-3.90">(</tspan><tspan font-style="italic">r</tspan><tspan>)</tspan></text><g data-box="icon"><rect x="822" y="110" width="14.944444444444443" height="10.5" fill="rgb(184,228,216)"/><rect x="838.4444444444445" y="110" width="14.944444444444443" height="10.5" fill="rgb(184,228,216)"/><rect x="854.8888888888889" y="110" width="14.944444444444443" height="10.5" fill="rgb(184,228,216)"/><rect x="871.3333333333334" y="110" width="14.944444444444443" height="10.5" fill="rgb(184,228,216)"/><rect x="887.7777777777778" y="110" width="14.944444444444443" height="10.5" fill="rgb(184,228,216)"/><rect x="904.2222222222222" y="110" width="14.944444444444443" height="10.5" fill="rgb(184,228,216)"/><rect x="920.6666666666666" y="110" width="14.944444444444443" height="10.5" fill="rgb(184,228,216)"/><rect x="937.1111111111111" y="110" width="14.944444444444443" height="10.5" fill="rgb(184,228,216)"/><rect x="953.5555555555555" y="110" width="14.944444444444443" height="10.5" fill="rgb(184,228,216)"/><rect x="822" y="122" width="14.944444444444443" height="10.5" fill="rgb(184,228,216)"/><rect x="838.4444444444445" y="122" width="14.944444444444443" height="10.5" fill="rgb(184,228,216)"/><rect x="854.8888888888889" y="122" width="14.944444444444443" height="10.5" fill="rgb(184,228,216)"/><rect x="871.3333333333334" y="122" width="14.944444444444443" height="10.5" fill="rgb(184,228,216)"/><rect x="887.7777777777778" y="122" width="14.944444444444443" height="10.5" fill="rgb(184,228,216)"/><rect x="904.2222222222222" y="122" width="14.944444444444443" height="10.5" fill="rgb(184,228,216)"/><rect x="920.6666666666666" y="122" width="14.944444444444443" height="10.5" fill="#009E73"/><rect x="937.1111111111111" y="122" width="14.944444444444443" height="10.5" fill="#009E73"/><rect x="953.5555555555555" y="122" width="14.944444444444443" height="10.5" fill="#009E73"/><rect x="822" y="134" width="14.944444444444443" height="10.5" fill="rgb(184,228,216)"/><rect x="838.4444444444445" y="134" width="14.944444444444443" height="10.5" fill="rgb(184,228,216)"/><rect x="854.8888888888889" y="134" width="14.944444444444443" height="10.5" fill="rgb(184,228,216)"/><rect x="871.3333333333334" y="134" width="14.944444444444443" height="10.5" fill="rgb(184,228,216)"/><rect x="887.7777777777778" y="134" width="14.944444444444443" height="10.5" fill="rgb(184,228,216)"/><rect x="904.2222222222222" y="134" width="14.944444444444443" height="10.5" fill="rgb(184,228,216)"/><rect x="920.6666666666666" y="134" width="14.944444444444443" height="10.5" fill="rgb(184,228,216)"/><rect x="937.1111111111111" y="134" width="14.944444444444443" height="10.5" fill="rgb(184,228,216)"/><rect x="953.5555555555555" y="134" width="14.944444444444443" height="10.5" fill="rgb(184,228,216)"/><rect x="822" y="146" width="14.944444444444443" height="10.5" fill="rgb(184,228,216)"/><rect x="838.4444444444445" y="146" width="14.944444444444443" height="10.5" fill="rgb(184,228,216)"/><rect x="854.8888888888889" y="146" width="14.944444444444443" height="10.5" fill="rgb(184,228,216)"/><rect x="871.3333333333334" y="146" width="14.944444444444443" height="10.5" fill="rgb(184,228,216)"/><rect x="887.7777777777778" y="146" width="14.944444444444443" height="10.5" fill="rgb(184,228,216)"/><rect x="904.2222222222222" y="146" width="14.944444444444443" height="10.5" fill="rgb(184,228,216)"/><rect x="920.6666666666666" y="146" width="14.944444444444443" height="10.5" fill="rgb(184,228,216)"/><rect x="937.1111111111111" y="146" width="14.944444444444443" height="10.5" fill="rgb(184,228,216)"/><rect x="953.5555555555555" y="146" width="14.944444444444443" height="10.5" fill="rgb(184,228,216)"/><rect x="822" y="158" width="14.944444444444443" height="10.5" fill="rgb(184,228,216)"/><rect x="838.4444444444445" y="158" width="14.944444444444443" height="10.5" fill="rgb(184,228,216)"/><rect x="854.8888888888889" y="158" width="14.944444444444443" height="10.5" fill="rgb(184,228,216)"/><rect x="871.3333333333334" y="158" width="14.944444444444443" height="10.5" fill="#009E73"/><rect x="887.7777777777778" y="158" width="14.944444444444443" height="10.5" fill="#009E73"/><rect x="904.2222222222222" y="158" width="14.944444444444443" height="10.5" fill="#009E73"/><rect x="920.6666666666666" y="158" width="14.944444444444443" height="10.5" fill="#009E73"/><rect x="937.1111111111111" y="158" width="14.944444444444443" height="10.5" fill="#009E73"/><rect x="953.5555555555555" y="158" width="14.944444444444443" height="10.5" fill="#009E73"/><rect x="822" y="170" width="14.944444444444443" height="10.5" fill="rgb(184,228,216)"/><rect x="838.4444444444445" y="170" width="14.944444444444443" height="10.5" fill="rgb(184,228,216)"/><rect x="854.8888888888889" y="170" width="14.944444444444443" height="10.5" fill="rgb(184,228,216)"/><rect x="871.3333333333334" y="170" width="14.944444444444443" height="10.5" fill="rgb(184,228,216)"/><rect x="887.7777777777778" y="170" width="14.944444444444443" height="10.5" fill="rgb(184,228,216)"/><rect x="904.2222222222222" y="170" width="14.944444444444443" height="10.5" fill="rgb(184,228,216)"/><rect x="920.6666666666666" y="170" width="14.944444444444443" height="10.5" fill="rgb(184,228,216)"/><rect x="937.1111111111111" y="170" width="14.944444444444443" height="10.5" fill="#009E73"/><rect x="953.5555555555555" y="170" width="14.944444444444443" height="10.5" fill="#009E73"/></g><text x="822" y="204" font-size="13" fill="#333333" font-weight="700" text-anchor="start"><tspan>per condition</tspan></text><text x="822" y="222" font-size="12" fill="#666666" font-weight="400" text-anchor="start"><tspan>and price setting</tspan></text><path d="M822 236H970" stroke="#CCCCCC" stroke-width="1"/><text x="822" y="256" font-size="12" fill="#666666" font-weight="700" text-anchor="start" letter-spacing="1.2"><tspan>ANSWERS</tspan></text><g data-box="claim"><rect x="820" y="266" width="152" height="118" rx="7" fill="#FFFFFF" stroke="#CCCCCC" stroke-width="1.2"/><text x="830" y="293" font-size="13.5" fill="#333333" font-weight="700" text-anchor="start"><tspan>What to buy</tspan></text><g data-box="icon"><rect x="830" y="314" width="108.24" height="13" rx="2" fill="#009E73"/><rect x="940.24" y="314" width="21.759999999999998" height="13" rx="2" fill="url(#hatch)"/></g><text x="830" y="358" font-size="12" fill="#333333" font-weight="400" text-anchor="start"><tspan>alone or coupled</tspan></text><text x="830" y="375" font-size="12" fill="#666666" font-weight="400" text-anchor="start"><tspan>at equal service</tspan></text></g><g data-box="claim"><rect x="820" y="393" width="152" height="118" rx="7" fill="#FFFFFF" stroke="#CCCCCC" stroke-width="1.2"/><text x="830" y="420" font-size="13.5" fill="#333333" font-weight="700" text-anchor="start"><tspan>Delay cap</tspan></text><g data-box="icon"><rect x="830" y="435" width="18.48" height="10" rx="1.5" fill="#0072B2"/><rect x="830" y="449" width="126.72" height="10" rx="1.5" fill="url(#hatch)"/></g><text x="830" y="485" font-size="12" fill="#333333" font-weight="400" text-anchor="start"><tspan>service with and</tspan></text><text x="830" y="502" font-size="12" fill="#666666" font-weight="400" text-anchor="start"><tspan>without </tspan><tspan font-style="italic">T</tspan><tspan dy="3.60" font-size="8.6">max</tspan><tspan dy="-3.60"> </tspan></text></g><g data-box="claim"><rect x="820" y="520" width="152" height="118" rx="7" fill="#FFFFFF" stroke="#CCCCCC" stroke-width="1.2"/><text x="830" y="547" font-size="13.5" fill="#333333" font-weight="700" text-anchor="start"><tspan>Evaluation</tspan></text><g data-box="icon"><rect x="838" y="576.5" width="22" height="13.5" fill="rgb(184,184,184)"/><rect x="868" y="569" width="22" height="21" fill="rgb(184,184,184)"/><rect x="898" y="560" width="22" height="30" fill="#009E73"/><path d="M830 590.5H934" stroke="#CCCCCC" stroke-width="1"/></g><text x="830" y="612" font-size="12" fill="#333333" font-weight="400" text-anchor="start"><tspan>greedy vs. full search,</tspan></text><text x="830" y="629" font-size="12" fill="#666666" font-weight="400" text-anchor="start"><tspan>load-rule estimate</tspan></text></g></g><path d="M770 574L808 574" fill="none" stroke="#4D4D4D" stroke-width="1.5" stroke-linejoin="round" marker-end="url(#ah)"/><text x="789" y="566" font-size="12" fill="#666666" font-weight="400" text-anchor="middle"><tspan font-style="italic">C</tspan><tspan dy="3.60" font-size="8.6" font-style="italic">X</tspan><tspan dy="-3.60">(</tspan><tspan font-style="italic">r</tspan><tspan>)</tspan></text><text x="16" y="684" font-size="12.5" fill="#0072B2" font-weight="700" text-anchor="start" letter-spacing="1.4"><tspan>ROBUSTNESS &amp; VALIDATION</tspan></text><path d="M16 693H984" stroke="#CCCCCC" stroke-width="1"/><g data-box="check"><rect x="16" y="702" width="114" height="86" rx="7" fill="#FFFFFF" stroke="#CCCCCC" stroke-width="1.2"/><g data-box="icon"><rect x="28" y="722" width="4.5" height="10" fill="rgb(153,199,224)"/><rect x="34" y="716" width="4.5" height="16" fill="rgb(122,182,215)"/><rect x="40" y="712" width="4.5" height="20" fill="rgb(153,199,224)"/><rect x="46" y="718" width="4.5" height="14" fill="rgb(122,182,215)"/><rect x="52" y="724" width="4.5" height="8" fill="rgb(153,199,224)"/></g><text x="28" y="754" font-size="12.5" fill="#333333" font-weight="700" text-anchor="start"><tspan>Day bootstrap</tspan></text><text x="28" y="773" font-size="12" fill="#666666" font-weight="400" text-anchor="start"><tspan>resampled days</tspan></text></g><g data-box="check"><rect x="138" y="702" width="114" height="86" rx="7" fill="#FFFFFF" stroke="#CCCCCC" stroke-width="1.2"/><g data-box="icon"><rect x="150" y="724" width="6.5" height="8" fill="rgb(166,206,228)"/><rect x="159" y="718" width="6.5" height="14" fill="rgb(89,163,205)"/><rect x="168" y="712" width="6.5" height="20" fill="rgb(13,121,182)"/></g><text x="150" y="754" font-size="12.5" fill="#333333" font-weight="700" text-anchor="start"><tspan>Search grading</tspan></text><text x="150" y="773" font-size="12" fill="#666666" font-weight="400" text-anchor="start"><tspan>strong to weak</tspan></text></g><g data-box="check"><rect x="260" y="702" width="114" height="86" rx="7" fill="#FFFFFF" stroke="#CCCCCC" stroke-width="1.2"/><g data-box="icon"><path d="M272 723q4 -9 8 0t8 0t8 0t8 0" fill="none" stroke="#0072B2" stroke-width="1.8"/></g><text x="272" y="754" font-size="12.5" fill="#333333" font-weight="700" text-anchor="start"><tspan>Handling noise</tspan></text><text x="272" y="773" font-size="12" fill="#666666" font-weight="400" text-anchor="start"><tspan>random durations</tspan></text></g><g data-box="check"><rect x="382" y="702" width="114" height="86" rx="7" fill="#FFFFFF" stroke="#CCCCCC" stroke-width="1.2"/><g data-box="icon"><path d="M396 730A13 13 0 0 1 422 730" fill="none" stroke="#0072B2" stroke-width="1.8"/><path d="M409 730L417 720" stroke="#333333" stroke-width="1.8"/></g><text x="394" y="754" font-size="12.5" fill="#333333" font-weight="700" text-anchor="start"><tspan>Tier speeds</tspan></text><text x="394" y="773" font-size="12" fill="#666666" font-weight="400" text-anchor="start"><tspan>maker data</tspan></text></g><g data-box="check"><rect x="504" y="702" width="114" height="86" rx="7" fill="#FFFFFF" stroke="#CCCCCC" stroke-width="1.2"/><g data-box="icon"><rect x="518" y="712" width="28" height="8" rx="1.5" fill="#0072B2"/><rect x="516" y="722" width="14" height="6" rx="1.5" fill="rgb(246,221,166)" stroke="#E69F00" stroke-width="1.1"/><circle cx="521" cy="731.5" r="2.4" fill="#333333"/><rect x="532" y="722" width="14" height="6" rx="1.5" fill="rgb(246,221,166)" stroke="#E69F00" stroke-width="1.1"/><circle cx="537" cy="731.5" r="2.4" fill="#333333"/></g><text x="516" y="754" font-size="12.5" fill="#333333" font-weight="700" text-anchor="start"><tspan>Coupling rule</tspan></text><text x="516" y="773" font-size="12" fill="#666666" font-weight="400" text-anchor="start"><tspan>overweight-only</tspan></text></g><g data-box="check"><rect x="626" y="702" width="114" height="86" rx="7" fill="#FFFFFF" stroke="#CCCCCC" stroke-width="1.2"/><g data-box="icon"><path d="M641 728L652 715L666 724Z" fill="none" stroke="#0072B2" stroke-width="1.3"/><circle cx="641" cy="728" r="2.8" fill="#FFFFFF" stroke="#0072B2" stroke-width="1.3"/><circle cx="652" cy="715" r="2.8" fill="#FFFFFF" stroke="#0072B2" stroke-width="1.3"/><circle cx="666" cy="724" r="2.8" fill="#FFFFFF" stroke="#0072B2" stroke-width="1.3"/></g><text x="638" y="754" font-size="12.5" fill="#333333" font-weight="700" text-anchor="start"><tspan>Second yard</tspan></text><text x="638" y="773" font-size="12" fill="#666666" font-weight="400" text-anchor="start"><tspan>published data</tspan></text></g><g data-box="check"><rect x="748" y="702" width="114" height="86" rx="7" fill="#FFFFFF" stroke="#CCCCCC" stroke-width="1.2"/><g data-box="icon"><rect x="760" y="713" width="19" height="19" rx="3" fill="#FFFFFF" stroke="#0072B2" stroke-width="1.5"/><path d="M764 723l4 4l8 -9" fill="none" stroke="#009E73" stroke-width="2"/></g><text x="760" y="754" font-size="12.5" fill="#333333" font-weight="700" text-anchor="start"><tspan>Exact CP-SAT</tspan></text><text x="760" y="773" font-size="12" fill="#666666" font-weight="400" text-anchor="start"><tspan>proven optima</tspan></text></g><g data-box="check"><rect x="870" y="702" width="114" height="86" rx="7" fill="#FFFFFF" stroke="#CCCCCC" stroke-width="1.2"/><g data-box="icon"><rect x="886" y="721" width="8" height="11" fill="rgb(140,192,220)"/><rect x="898" y="716" width="8" height="16" fill="rgb(77,156,201)"/><path d="M882 718H912" stroke="#333333" stroke-width="1.3" stroke-dasharray="3 2"/></g><text x="882" y="754" font-size="12.5" fill="#333333" font-weight="700" text-anchor="start"><tspan>Lower bounds</tspan></text><text x="882" y="773" font-size="12" fill="#666666" font-weight="400" text-anchor="start"><tspan>at </tspan><tspan font-style="italic">K</tspan><tspan dy="-5.04" font-size="8.6">*</tspan><tspan dy="5.04"> − 1</tspan></text></g></svg>